<svg height='100px' width='100px'  fill="#FF0000" xmlns="http://www.w3.org/2000/svg" xmlns:xlink="http://www.w3.org/1999/xlink" version="1.1" x="0px" y="0px" viewBox="0 0 100 100" enable-background="new 0 0 100 100" xml:space="preserve"><path d="M50,5C25.147,5,5,25.147,5,50c0,24.852,20.147,45,45,45c24.854,0,45-20.148,45-45C95,25.147,74.854,5,50,5z M70.243,70.24  c-1.173,1.172-2.708,1.758-4.243,1.758s-3.07-0.586-4.242-1.757L50,58.484L38.243,70.242C37.071,71.414,35.536,72,34,72  s-3.071-0.586-4.243-1.757c-2.343-2.345-2.343-6.144,0-8.485L41.515,50L29.757,38.242c-2.343-2.343-2.343-6.142,0-8.485  c2.343-2.343,6.142-2.343,8.485,0L50,41.514l11.756-11.757c2.344-2.343,6.145-2.343,8.485,0c2.344,2.343,2.344,6.142,0.001,8.485  L58.486,49.999l11.756,11.756C72.586,64.1,72.586,67.898,70.243,70.24z"></path></svg>